<mxfile host="app.diagrams.net" agent="Mozilla/5.0 (Windows NT 10.0; Win64; x64; rv:131.0) Gecko/20100101 Firefox/131.0" version="24.7.10">
  <diagram name="Page-1" id="EwLU5tueva4AbY2h6erD">
    <mxGraphModel>
      <root>
        <mxCell id="0" />
        <mxCell id="1" parent="0" />
        <mxCell id="2" value="TrainFreightManagingApp" style="swimlane;fontStyle=1;align=center;verticalAlign=top;childLayout=stackLayout;horizontal=1;startSize=25.39394031871449;horizontalStack=0;resizeParent=1;resizeParentMax=0;resizeLast=0;collapsible=0;marginBottom=0;" vertex="1" parent="1">
          <mxGeometry x="418" y="8" width="204" height="148" as="geometry" />
        </mxCell>
        <mxCell id="3" value="+ dashboard: Dashboard" style="text;strokeColor=none;fillColor=none;align=left;verticalAlign=top;spacingLeft=4;spacingRight=4;overflow=hidden;rotatable=0;points=[[0,0.5],[1,0.5]];portConstraint=eastwest;" vertex="1" parent="2">
          <mxGeometry y="25" width="204" height="25" as="geometry" />
        </mxCell>
        <mxCell id="4" value="+ operations: Operations" style="text;strokeColor=none;fillColor=none;align=left;verticalAlign=top;spacingLeft=4;spacingRight=4;overflow=hidden;rotatable=0;points=[[0,0.5],[1,0.5]];portConstraint=eastwest;" vertex="1" parent="2">
          <mxGeometry y="51" width="204" height="25" as="geometry" />
        </mxCell>
        <mxCell id="5" value="+ scheduling: Scheduling" style="text;strokeColor=none;fillColor=none;align=left;verticalAlign=top;spacingLeft=4;spacingRight=4;overflow=hidden;rotatable=0;points=[[0,0.5],[1,0.5]];portConstraint=eastwest;" vertex="1" parent="2">
          <mxGeometry y="76" width="204" height="25" as="geometry" />
        </mxCell>
        <mxCell id="6" value="+ inventory: Inventory" style="text;strokeColor=none;fillColor=none;align=left;verticalAlign=top;spacingLeft=4;spacingRight=4;overflow=hidden;rotatable=0;points=[[0,0.5],[1,0.5]];portConstraint=eastwest;" vertex="1" parent="2">
          <mxGeometry y="102" width="204" height="25" as="geometry" />
        </mxCell>
        <mxCell id="7" style="line;strokeWidth=1;fillColor=none;align=left;verticalAlign=middle;spacingTop=-1;spacingLeft=3;spacingRight=3;rotatable=0;labelPosition=right;points=[];portConstraint=eastwest;strokeColor=inherit;" vertex="1" parent="2">
          <mxGeometry y="127" width="204" height="13" as="geometry" />
        </mxCell>
        <mxCell id="8" value="Dashboard" style="swimlane;fontStyle=1;align=center;verticalAlign=top;childLayout=stackLayout;horizontal=1;startSize=28.839999389648437;horizontalStack=0;resizeParent=1;resizeParentMax=0;resizeLast=0;collapsible=0;marginBottom=0;" vertex="1" parent="1">
          <mxGeometry x="481" y="206" width="225" height="80" as="geometry" />
        </mxCell>
        <mxCell id="9" style="line;strokeWidth=1;fillColor=none;align=left;verticalAlign=middle;spacingTop=-1;spacingLeft=3;spacingRight=3;rotatable=0;labelPosition=right;points=[];portConstraint=eastwest;strokeColor=inherit;" vertex="1" parent="8">
          <mxGeometry y="43" width="225" height="8" as="geometry" />
        </mxCell>
        <mxCell id="10" value="+displayGeneralInformation()" style="text;strokeColor=none;fillColor=none;align=left;verticalAlign=top;spacingLeft=4;spacingRight=4;overflow=hidden;rotatable=0;points=[[0,0.5],[1,0.5]];portConstraint=eastwest;" vertex="1" parent="8">
          <mxGeometry y="51" width="225" height="29" as="geometry" />
        </mxCell>
        <mxCell id="11" value="Operations" style="swimlane;fontStyle=1;align=center;verticalAlign=top;childLayout=stackLayout;horizontal=1;startSize=27.133333478655135;horizontalStack=0;resizeParent=1;resizeParentMax=0;resizeLast=0;collapsible=0;marginBottom=0;" vertex="1" parent="1">
          <mxGeometry x="8" y="354" width="201" height="103" as="geometry" />
        </mxCell>
        <mxCell id="12" style="line;strokeWidth=1;fillColor=none;align=left;verticalAlign=middle;spacingTop=-1;spacingLeft=3;spacingRight=3;rotatable=0;labelPosition=right;points=[];portConstraint=eastwest;strokeColor=inherit;" vertex="1" parent="11">
          <mxGeometry y="41" width="201" height="8" as="geometry" />
        </mxCell>
        <mxCell id="13" value="+viewCurrentOperations()" style="text;strokeColor=none;fillColor=none;align=left;verticalAlign=top;spacingLeft=4;spacingRight=4;overflow=hidden;rotatable=0;points=[[0,0.5],[1,0.5]];portConstraint=eastwest;" vertex="1" parent="11">
          <mxGeometry y="49" width="201" height="27" as="geometry" />
        </mxCell>
        <mxCell id="14" value="+accessOperationDetails()" style="text;strokeColor=none;fillColor=none;align=left;verticalAlign=top;spacingLeft=4;spacingRight=4;overflow=hidden;rotatable=0;points=[[0,0.5],[1,0.5]];portConstraint=eastwest;" vertex="1" parent="11">
          <mxGeometry y="76" width="201" height="27" as="geometry" />
        </mxCell>
        <mxCell id="15" value="Scheduling" style="swimlane;fontStyle=1;align=center;verticalAlign=top;childLayout=stackLayout;horizontal=1;startSize=27.133333478655135;horizontalStack=0;resizeParent=1;resizeParentMax=0;resizeLast=0;collapsible=0;marginBottom=0;" vertex="1" parent="1">
          <mxGeometry x="453" y="354" width="132" height="103" as="geometry" />
        </mxCell>
        <mxCell id="16" style="line;strokeWidth=1;fillColor=none;align=left;verticalAlign=middle;spacingTop=-1;spacingLeft=3;spacingRight=3;rotatable=0;labelPosition=right;points=[];portConstraint=eastwest;strokeColor=inherit;" vertex="1" parent="15">
          <mxGeometry y="41" width="132" height="8" as="geometry" />
        </mxCell>
        <mxCell id="17" value="+viewSchedule()" style="text;strokeColor=none;fillColor=none;align=left;verticalAlign=top;spacingLeft=4;spacingRight=4;overflow=hidden;rotatable=0;points=[[0,0.5],[1,0.5]];portConstraint=eastwest;" vertex="1" parent="15">
          <mxGeometry y="49" width="132" height="27" as="geometry" />
        </mxCell>
        <mxCell id="18" value="+editSchedule()" style="text;strokeColor=none;fillColor=none;align=left;verticalAlign=top;spacingLeft=4;spacingRight=4;overflow=hidden;rotatable=0;points=[[0,0.5],[1,0.5]];portConstraint=eastwest;" vertex="1" parent="15">
          <mxGeometry y="76" width="132" height="27" as="geometry" />
        </mxCell>
        <mxCell id="19" value="Inventory" style="swimlane;fontStyle=1;align=center;verticalAlign=top;childLayout=stackLayout;horizontal=1;startSize=27.133333478655135;horizontalStack=0;resizeParent=1;resizeParentMax=0;resizeLast=0;collapsible=0;marginBottom=0;" vertex="1" parent="1">
          <mxGeometry x="701" y="354" width="158" height="103" as="geometry" />
        </mxCell>
        <mxCell id="20" style="line;strokeWidth=1;fillColor=none;align=left;verticalAlign=middle;spacingTop=-1;spacingLeft=3;spacingRight=3;rotatable=0;labelPosition=right;points=[];portConstraint=eastwest;strokeColor=inherit;" vertex="1" parent="19">
          <mxGeometry y="41" width="158" height="8" as="geometry" />
        </mxCell>
        <mxCell id="21" value="+viewInventory()" style="text;strokeColor=none;fillColor=none;align=left;verticalAlign=top;spacingLeft=4;spacingRight=4;overflow=hidden;rotatable=0;points=[[0,0.5],[1,0.5]];portConstraint=eastwest;" vertex="1" parent="19">
          <mxGeometry y="49" width="158" height="27" as="geometry" />
        </mxCell>
        <mxCell id="22" value="+manageInventory()" style="text;strokeColor=none;fillColor=none;align=left;verticalAlign=top;spacingLeft=4;spacingRight=4;overflow=hidden;rotatable=0;points=[[0,0.5],[1,0.5]];portConstraint=eastwest;" vertex="1" parent="19">
          <mxGeometry y="76" width="158" height="27" as="geometry" />
        </mxCell>
        <mxCell id="23" value="" style="curved=1;startArrow=none;endArrow=none;exitX=0.77;exitY=1;entryX=0.5;entryY=0;" edge="1" parent="1" source="2" target="8">
          <mxGeometry relative="1" as="geometry">
            <Array as="points">
              <mxPoint x="593" y="181" />
            </Array>
          </mxGeometry>
        </mxCell>
        <mxCell id="24" value="" style="curved=1;startArrow=none;endArrow=none;exitX=0;exitY=0.65;entryX=0.39;entryY=0;" edge="1" parent="1" source="2" target="11">
          <mxGeometry relative="1" as="geometry">
            <Array as="points">
              <mxPoint x="70" y="181" />
              <mxPoint x="70" y="320" />
            </Array>
          </mxGeometry>
        </mxCell>
        <mxCell id="25" value="" style="curved=1;startArrow=none;endArrow=none;exitX=0;exitY=0.91;entryX=0;entryY=0.17;" edge="1" parent="1" source="2" target="15">
          <mxGeometry relative="1" as="geometry">
            <Array as="points">
              <mxPoint x="353" y="181" />
              <mxPoint x="353" y="320" />
            </Array>
          </mxGeometry>
        </mxCell>
        <mxCell id="26" value="" style="curved=1;startArrow=none;endArrow=none;exitX=1;exitY=0.81;entryX=0.35;entryY=0;" edge="1" parent="1" source="2" target="19">
          <mxGeometry relative="1" as="geometry">
            <Array as="points">
              <mxPoint x="741" y="181" />
              <mxPoint x="741" y="320" />
            </Array>
          </mxGeometry>
        </mxCell>
        <mxCell id="27" value="Display snippets" style="curved=1;startArrow=diamondThin;startSize=14;startFill=1;endArrow=none;exitX=0;exitY=0.83;entryX=1;entryY=0;" edge="1" parent="1" source="8" target="11">
          <mxGeometry relative="1" as="geometry">
            <Array as="points">
              <mxPoint x="275" y="320" />
            </Array>
          </mxGeometry>
        </mxCell>
        <mxCell id="28" value="Display snippets" style="curved=1;startArrow=diamondThin;startSize=14;startFill=1;endArrow=none;exitX=0.5;exitY=1;entryX=0.84;entryY=0;" edge="1" parent="1" source="8" target="15">
          <mxGeometry relative="1" as="geometry">
            <Array as="points">
              <mxPoint x="593" y="320" />
            </Array>
          </mxGeometry>
        </mxCell>
        <mxCell id="29" value="Display snippets" style="curved=1;startArrow=diamondThin;startSize=14;startFill=1;endArrow=none;exitX=1;exitY=0.96;entryX=0.64;entryY=0;" edge="1" parent="1" source="8" target="19">
          <mxGeometry relative="1" as="geometry">
            <Array as="points">
              <mxPoint x="818" y="320" />
            </Array>
          </mxGeometry>
        </mxCell>
        <mxCell id="30" value="Access operation details" style="curved=1;startArrow=none;endArrow=none;exitX=1;exitY=0.23;entryX=1;entryY=0.78;" edge="1" parent="1" source="11" target="11">
          <mxGeometry relative="1" as="geometry">
            <Array as="points">
              <mxPoint x="291" y="354" />
              <mxPoint x="311" y="354" />
              <mxPoint x="331" y="406" />
              <mxPoint x="311" y="457" />
              <mxPoint x="291" y="457" />
            </Array>
          </mxGeometry>
        </mxCell>
      </root>
    </mxGraphModel>
  </diagram>
</mxfile>
